<?xml version="1.0" encoding="utf-8"?>
<svg width="625" height="230" viewBox="0 0 625 230" fill="none" xmlns="http://www.w3.org/2000/svg">
<path d="M324.996 70.0525L339.287 71.6195C338.369 80.1867 335.06 87.238 329.353 92.7741C323.652 98.3107 316.161 101.079 306.884 101.079C299.072 101.079 292.729 99.116 287.86 95.1871C282.991 91.2594 279.245 85.9317 276.608 79.2035C273.98 72.477 272.661 65.0595 272.661 56.9526C272.661 43.9157 275.755 33.3131 281.938 25.1431C288.121 16.9748 296.625 12.8898 307.446 12.8898C315.93 12.8898 322.99 15.5019 328.637 20.7241C334.272 25.9484 337.828 33.4279 339.287 43.1638L324.996 44.6677C322.368 31.756 316.557 25.2998 307.576 25.2998C301.81 25.2998 297.327 27.9849 294.128 33.3539C290.934 38.7246 289.334 46.5067 289.334 56.7018C289.334 67.0655 291.049 74.89 294.474 80.1753C297.899 85.4616 302.431 88.1042 308.078 88.1042C312.591 88.1042 316.432 86.3294 319.61 82.7765C322.785 79.2247 324.58 74.9841 324.996 70.0525Z" fill="#414242"/>
<path d="M366.931 14.2016H351.512V99.7586H366.931V14.2016Z" fill="#414242"/>
<path d="M415.635 99.7586H399.088V27.4273H376.333V14.2016H438.386V27.4273H415.635V99.7586Z" fill="#414242"/>
<path d="M463.206 52.2479H482.386C487.942 52.2479 492.079 51.0787 494.797 48.738C497.514 46.399 498.868 43.1807 498.868 39.0854C498.868 35.3247 497.534 32.2849 494.857 29.966C492.184 27.6465 488.443 26.4871 483.64 26.4871H463.206V52.2479ZM514.478 99.7586H498.181L484.893 64.596H463.206V99.7586H447.787V14.2016H484.893C495.213 14.2016 502.799 16.5325 507.643 21.1904C512.492 25.8505 514.914 31.8774 514.914 39.2737C514.914 50.2637 509.779 57.8265 499.5 61.9631L514.478 99.7586Z" fill="#414242"/>
<path d="M545.692 14.2016H530.273V99.7586H545.692V14.2016Z" fill="#414242"/>
<path d="M555.537 79.141L570.516 75.9444C572.306 84.4273 579.205 88.6684 591.196 88.6684C596.675 88.6684 600.881 87.583 603.83 85.4094C606.773 83.2368 608.248 80.5414 608.248 77.3232C608.248 74.9841 607.579 72.8219 606.24 70.836C604.902 68.8517 602.04 67.2946 597.655 66.1661L581.294 61.9043C575.695 60.4423 571.555 58.7818 568.883 56.921C566.212 55.0624 564.063 52.4399 562.458 49.0552C560.853 45.671 560.047 42.0566 560.047 38.2121C560.047 30.5649 562.887 24.4336 568.573 19.8154C574.253 15.1983 581.522 12.8898 590.386 12.8898C597.736 12.8898 604.303 14.4992 610.098 17.7158C615.881 20.9335 619.57 25.4881 621.159 31.38L606.49 35.0156C604.233 28.5393 598.971 25.2998 590.696 25.2998C585.891 25.2998 582.219 26.3026 579.694 28.3086C577.164 30.3141 575.902 32.8637 575.902 35.9552C575.902 40.8444 579.874 44.2716 587.812 46.2346L602.355 49.8702C611.17 52.0852 617.078 55.3546 620.087 59.679C623.096 64.0039 624.603 68.7788 624.603 74.0015C624.603 82.4006 621.437 89.0134 615.109 93.8394C608.776 98.6655 600.576 101.079 590.505 101.079C582.023 101.079 574.596 99.3037 568.225 95.7508C561.854 92.1996 557.621 86.6624 555.537 79.141Z" fill="#414242"/>
<path d="M284.474 209.887L276.379 212.739L284.474 215.618V209.887ZM274.128 213.857V211.172L291.001 205.106V207.51L286.067 209.383V216.289L291.001 217.94V219.897L274.128 213.857Z" fill="#414242"/>
<path d="M274.128 202.256V199.347L287.889 190.316L286.724 190.344C286.094 190.372 285.663 190.372 285.486 190.372H274.128V188.527H291.001V190.792L276.303 200.438L277.415 200.41C277.972 200.383 278.352 200.383 278.478 200.383H291.001V202.256H274.128Z" fill="#414242"/>
<path d="M289.204 177.758C289.204 176.081 288.7 174.598 287.812 173.676C286.623 172.418 284.601 171.663 282.5 171.663C280.45 171.663 278.629 172.362 277.365 173.62C276.379 174.627 275.897 175.941 275.897 177.787V181.561H289.204V177.758ZM274.128 183.882V177.647C274.128 175.297 274.708 173.593 275.974 172.111C277.541 170.292 279.845 169.286 282.5 169.286C287.382 169.286 291.001 172.502 291.001 176.863V183.882H274.128Z" fill="#414242"/>
<path d="M275.974 155.483V160.824H274.128V147.821H275.974V153.163H291.001V155.483H275.974Z" fill="#414242"/>
<path d="M274.128 145.217V142.897H281.108V134.229H274.128V131.908H291.001V134.229H282.955V142.897H291.001V145.217H274.128Z" fill="#414242"/>
<path d="M274.128 127.228V115.428H275.974V124.907H281.363V117.386H283.083V124.907H289.155V115.177H291.001V127.228H274.128Z" fill="#414242"/>
<path d="M327.107 154.158C332.094 154.158 335.239 151.588 335.239 147.493C335.239 143.535 332.017 140.829 327.184 140.829H315.216V154.158H327.107ZM326.416 134.233C330.944 134.233 333.859 131.595 333.859 127.568C333.859 123.818 330.867 121.389 326.264 121.389H315.216V134.233H326.416ZM306.468 114.797H326.416C332.094 114.797 334.857 115.349 337.695 117.154C340.995 119.24 342.987 122.777 342.987 126.804C342.987 132.152 339.69 135.762 333.704 137.079C336.697 137.635 338.077 138.119 339.767 139.301C342.912 141.382 344.6 144.648 344.6 148.534C344.6 152.072 343.065 155.474 340.457 157.696C337.695 160.057 334.164 161.098 328.794 161.098H306.468V114.797Z" fill="#414242"/>
<path d="M378.641 143.394L371.198 122.709L363.755 143.394H378.641ZM366.517 114.797H377.873L395.059 161.098H385.161L381.096 150.059H361.455L357.387 161.098H349.561L366.517 114.797Z" fill="#414242"/>
<path d="M403.47 114.797H413.676L431.552 142.078L433.087 144.648C433.317 145.064 433.93 146.24 434.775 147.629V114.797H442.063V161.098H433.622L413.676 131.527L412.293 129.025L410.914 126.528V161.098H403.47V114.797Z" fill="#414242"/>
<path d="M479.323 143.394L471.881 122.709L464.438 143.394H479.323ZM467.201 114.797H478.556L495.742 161.098H485.844L481.779 150.059H462.137L458.07 161.098H450.244L467.201 114.797Z" fill="#414242"/>
<path d="M507.916 121.945H494.335V114.797H531.392V121.945H517.812V161.098H507.916V121.945Z" fill="#414242"/>
<path d="M558.997 143.394L551.554 122.709L544.109 143.394H558.997ZM546.869 114.797H558.23L575.412 161.098H565.515L561.451 150.059H541.809L537.741 161.098H529.916L546.869 114.797Z" fill="#414242"/>
<path d="M602.78 155.07C606.768 155.07 610.604 152.917 612.367 149.654C613.907 146.949 614.674 143.13 614.674 138.48C614.674 126.816 610.756 120.848 603.009 120.848C598.868 120.848 595.489 122.654 593.803 125.635C592.111 128.689 591.115 133.205 591.115 138.064C591.115 142.506 591.882 146.46 593.34 149.519C595.032 152.917 598.634 155.07 602.78 155.07ZM581.142 137.783C581.142 123.902 590.195 114.112 603.085 114.112C616.203 114.112 624.647 123.622 624.647 138.34C624.647 152.292 615.746 161.802 602.704 161.802C596.028 161.802 590.424 159.373 586.822 154.93C583.139 150.419 581.142 144.452 581.142 137.783Z" fill="#414242"/>
<path d="M315.821 177.043H307.352V219.629H315.821V177.043Z" fill="#414242"/>
<path d="M328.298 177.043H337.685L354.127 202.136L355.538 204.5C355.75 204.883 356.313 205.964 357.091 207.242V177.043H363.794V219.629H356.031L337.685 192.432L336.413 190.13L335.144 187.834V219.629H328.298V177.043Z" fill="#414242"/>
<path d="M397.359 194.804C402.439 195.953 405.474 197.551 407.309 200.04C408.79 202.02 409.568 204.321 409.568 206.939C409.568 214.983 402.158 220.28 390.796 220.28C384.939 220.28 380.071 218.94 376.33 216.26C374 214.533 372.802 212.811 371.601 209.365L379.788 207.767C380.494 209.939 381.129 210.896 382.47 211.853C384.445 213.322 387.62 214.088 391.29 214.088C397.008 214.088 400.606 211.791 400.606 208.088C400.606 205.533 398.7 203.81 394.749 202.915L385.717 200.809C380.917 199.656 378.588 198.508 376.824 196.465C374.989 194.359 374.071 191.866 374.071 189.124C374.071 181.526 380.775 176.416 390.724 176.416C395.807 176.416 400.323 177.693 403.711 180.119C405.757 181.65 406.815 182.995 407.661 185.612L399.618 187.398C398.348 184.143 395.524 182.612 390.796 182.612C385.928 182.612 382.753 184.718 382.753 187.847C382.753 190.335 384.868 191.996 389.315 193.02L397.359 194.804Z" fill="#414242"/>
<path d="M426.268 183.618H413.776V177.043H447.861V183.618H435.37V219.629H426.268V183.618Z" fill="#414242"/>
<path d="M463.579 177.043H455.11V219.629H463.579V177.043Z" fill="#414242"/>
<path d="M483.396 183.618H470.905V177.043H504.989V183.618H492.498V219.629H483.396V183.618Z" fill="#414242"/>
<path d="M544.559 204.433C544.559 210.821 543.713 213.371 540.608 216.18C537.644 218.864 533.408 220.267 528.117 220.267C522.754 220.267 518.378 218.802 515.554 216.117C512.804 213.563 511.815 210.562 511.815 204.945V177.043H520.496V204.433C520.496 207.754 521.131 209.988 522.543 211.328C523.952 212.672 526.494 213.563 529.174 213.563C532.067 213.563 534.82 212.543 536.161 210.945C537.221 209.668 537.855 207.309 537.855 204.433V177.043H544.559V204.433Z" fill="#414242"/>
<path d="M563.655 183.618H551.168V177.043H585.25V183.618H572.757V219.629H563.655V183.618Z" fill="#414242"/>
<path d="M592.497 177.043H622.775V183.364H600.968V194.92H618.466V201.112H600.968V213.055H623.058V219.629H592.497V177.043Z" fill="#414242"/>
<path fill-rule="evenodd" clip-rule="evenodd" d="M11.4193 148.523C7.22544 148.523 3.3978 139.847 2.30255 126.761C0.99892 111.234 4.02894 95.3918 9.06663 91.3884L120.262 2.85852C125.296 -1.11821 130.448 8.16118 131.749 23.6889C133.053 39.216 130.022 55.0582 124.985 59.061L13.7893 147.591C12.9966 148.221 12.2038 148.523 11.4193 148.523Z" fill="url(#paint0_linear)"/>
<path fill-rule="evenodd" clip-rule="evenodd" d="M9.06663 93.1533C4.87281 93.1533 3.3978 102.707 2.30255 114.736C0.99892 129.009 4.02894 143.572 9.06663 147.251L120.262 228.629C125.296 232.285 130.448 223.755 131.749 209.482C133.053 195.209 130.022 180.647 124.985 176.967L13.7893 95.5892C12.9966 95.0103 6.714 91.5744 9.06663 93.1533Z" fill="url(#paint1_linear)"/>
<path fill-rule="evenodd" clip-rule="evenodd" d="M231.113 132.44C233.316 132.44 234.091 127.421 234.667 121.1C235.352 113.602 233.76 105.951 231.113 104.018L172.694 61.2645C170.049 59.3439 167.342 63.825 166.659 71.3236C165.974 78.8222 167.566 86.4731 170.213 88.4063L228.632 131.16C229.048 131.464 232.349 133.269 231.113 132.44Z" fill="url(#paint2_linear)"/>
<path fill-rule="evenodd" clip-rule="evenodd" d="M231.113 90.7072C233.316 90.7072 234.091 85.688 234.667 79.3684C235.352 71.8698 233.76 64.2194 231.113 62.2857L172.694 19.5319C170.049 17.6119 167.342 22.093 166.659 29.5916C165.974 37.0902 167.566 44.7406 170.213 46.6742L228.632 89.428C229.048 89.7322 232.349 91.5369 231.113 90.7072Z" fill="url(#paint3_linear)"/>
<path fill-rule="evenodd" clip-rule="evenodd" d="M229.877 103.37C232.08 103.37 234.091 107.928 234.667 114.803C235.352 122.961 233.76 131.284 231.113 133.387L172.694 179.898C170.049 181.988 167.342 177.113 166.659 168.955C165.974 160.797 167.566 152.474 170.213 150.371L228.632 103.86C229.048 103.529 229.465 103.37 229.877 103.37Z" fill="url(#paint4_linear)"/>
<path fill-rule="evenodd" clip-rule="evenodd" d="M229.877 61.6187C232.08 61.6187 234.091 66.1765 234.667 73.0516C235.352 81.209 233.76 89.5319 231.113 91.6354L172.694 138.147C170.049 140.236 167.342 135.361 166.659 127.203C165.974 119.046 167.566 110.723 170.213 108.62L228.632 62.1084C229.048 61.777 229.465 61.6187 229.877 61.6187Z" fill="url(#paint5_linear)"/>
<defs>
<linearGradient id="paint0_linear" x1="2.00004" y1="75.2307" x2="132.051" y2="75.2307" gradientUnits="userSpaceOnUse">
<stop stop-color="#054C7C"/>
<stop offset="0.9" stop-color="#147EC1"/>
<stop offset="1" stop-color="#1480C4"/>
</linearGradient>
<linearGradient id="paint1_linear" x1="2.00004" y1="161.109" x2="132.051" y2="161.109" gradientUnits="userSpaceOnUse">
<stop stop-color="#0E6E9F"/>
<stop offset="0.2" stop-color="#1682BE"/>
<stop offset="1" stop-color="#178CCD"/>
</linearGradient>
<linearGradient id="paint2_linear" x1="166.5" y1="96.7379" x2="234.826" y2="96.7379" gradientUnits="userSpaceOnUse">
<stop stop-color="#1480C4"/>
<stop offset="1" stop-color="#054C7C"/>
</linearGradient>
<linearGradient id="paint3_linear" x1="166.5" y1="55.0056" x2="234.826" y2="55.0056" gradientUnits="userSpaceOnUse">
<stop stop-color="#1480C4"/>
<stop offset="1" stop-color="#054C7C"/>
</linearGradient>
<linearGradient id="paint4_linear" x1="166.5" y1="141.876" x2="234.826" y2="141.876" gradientUnits="userSpaceOnUse">
<stop stop-color="#1C91D0"/>
<stop offset="0.7" stop-color="#1388C4"/>
<stop offset="0.9" stop-color="#0D7AAF"/>
<stop offset="1" stop-color="#0E6E9F"/>
</linearGradient>
<linearGradient id="paint5_linear" x1="166.5" y1="100.124" x2="234.826" y2="100.124" gradientUnits="userSpaceOnUse">
<stop stop-color="#1C91D0"/>
<stop offset="0.7" stop-color="#1388C4"/>
<stop offset="0.9" stop-color="#0D7AAF"/>
<stop offset="1" stop-color="#0E6E9F"/>
</linearGradient>
</defs>
</svg>
